<mxfile host="app.diagrams.net" agent="Mozilla/5.0 (Windows NT 10.0; Win64; x64) AppleWebKit/537.36 (KHTML, like Gecko) Chrome/130.0.0.0 Safari/537.36 Edg/130.0.0.0" version="24.8.3">
  <diagram name="Page-1" id="iDvqzn0_3KHAIhE44S7B">
    <mxGraphModel dx="3230" dy="1116" grid="1" gridSize="10" guides="1" tooltips="1" connect="1" arrows="1" fold="1" page="1" pageScale="1" pageWidth="850" pageHeight="1100" math="0" shadow="0">
      <root>
        <mxCell id="0" />
        <mxCell id="1" parent="0" />
        <mxCell id="qwqArq7vtgRSBeXjU8T7-1" value="Payment" style="rounded=1;whiteSpace=wrap;html=1;" parent="1" vertex="1">
          <mxGeometry x="860" y="790" width="130" height="40" as="geometry" />
        </mxCell>
        <mxCell id="qwqArq7vtgRSBeXjU8T7-2" value="&lt;u&gt;HOTEL_ID&lt;/u&gt;" style="ellipse;whiteSpace=wrap;html=1;" parent="1" vertex="1">
          <mxGeometry x="-130" y="180" width="90" height="40" as="geometry" />
        </mxCell>
        <mxCell id="qwqArq7vtgRSBeXjU8T7-4" value="LOCATION&amp;nbsp;" style="ellipse;whiteSpace=wrap;html=1;" parent="1" vertex="1">
          <mxGeometry x="-210" y="330" width="90" height="40" as="geometry" />
        </mxCell>
        <mxCell id="qwqArq7vtgRSBeXjU8T7-5" value="C_NUMBER" style="ellipse;whiteSpace=wrap;html=1;" parent="1" vertex="1">
          <mxGeometry x="-400" y="280" width="90" height="40" as="geometry" />
        </mxCell>
        <mxCell id="qwqArq7vtgRSBeXjU8T7-6" value="NAME" style="ellipse;whiteSpace=wrap;html=1;" parent="1" vertex="1">
          <mxGeometry x="-290" y="130" width="90" height="40" as="geometry" />
        </mxCell>
        <mxCell id="qwqArq7vtgRSBeXjU8T7-8" value="RATING" style="ellipse;whiteSpace=wrap;html=1;" parent="1" vertex="1">
          <mxGeometry x="-180" y="130" width="90" height="40" as="geometry" />
        </mxCell>
        <mxCell id="qwqArq7vtgRSBeXjU8T7-9" value="Staff" style="rounded=1;whiteSpace=wrap;html=1;" parent="1" vertex="1">
          <mxGeometry x="-580" y="90" width="110" height="40" as="geometry" />
        </mxCell>
        <mxCell id="qwqArq7vtgRSBeXjU8T7-10" value="Review" style="rounded=1;whiteSpace=wrap;html=1;" parent="1" vertex="1">
          <mxGeometry x="-435" y="740" width="110" height="40" as="geometry" />
        </mxCell>
        <mxCell id="qwqArq7vtgRSBeXjU8T7-11" value="Room" style="rounded=1;whiteSpace=wrap;html=1;" parent="1" vertex="1">
          <mxGeometry x="130" y="240" width="110" height="40" as="geometry" />
        </mxCell>
        <mxCell id="qwqArq7vtgRSBeXjU8T7-12" value="HOTEL" style="rounded=1;whiteSpace=wrap;html=1;" parent="1" vertex="1">
          <mxGeometry x="-240" y="240" width="110" height="40" as="geometry" />
        </mxCell>
        <mxCell id="qwqArq7vtgRSBeXjU8T7-13" value="Booking" style="rounded=1;whiteSpace=wrap;html=1;" parent="1" vertex="1">
          <mxGeometry x="425" y="730" width="110" height="40" as="geometry" />
        </mxCell>
        <mxCell id="qwqArq7vtgRSBeXjU8T7-14" value="Guest" style="rounded=1;whiteSpace=wrap;html=1;" parent="1" vertex="1">
          <mxGeometry y="740" width="110" height="40" as="geometry" />
        </mxCell>
        <mxCell id="qwqArq7vtgRSBeXjU8T7-15" value="Room_ID" style="ellipse;whiteSpace=wrap;html=1;" parent="1" vertex="1">
          <mxGeometry x="-10" y="130" width="90" height="40" as="geometry" />
        </mxCell>
        <mxCell id="qwqArq7vtgRSBeXjU8T7-16" value="Price_Per_Night" style="ellipse;whiteSpace=wrap;html=1;" parent="1" vertex="1">
          <mxGeometry x="205" y="70" width="100" height="40" as="geometry" />
        </mxCell>
        <mxCell id="qwqArq7vtgRSBeXjU8T7-17" value="Availability_Status" style="ellipse;whiteSpace=wrap;html=1;" parent="1" vertex="1">
          <mxGeometry x="315" y="200" width="110" height="40" as="geometry" />
        </mxCell>
        <mxCell id="qwqArq7vtgRSBeXjU8T7-18" value="Room_Number" style="ellipse;whiteSpace=wrap;html=1;" parent="1" vertex="1">
          <mxGeometry x="70" y="70" width="90" height="40" as="geometry" />
        </mxCell>
        <mxCell id="qwqArq7vtgRSBeXjU8T7-19" value="Type" style="ellipse;whiteSpace=wrap;html=1;" parent="1" vertex="1">
          <mxGeometry x="305" y="110" width="90" height="40" as="geometry" />
        </mxCell>
        <mxCell id="qwqArq7vtgRSBeXjU8T7-20" value="Guest_ID&amp;nbsp;" style="ellipse;whiteSpace=wrap;html=1;" parent="1" vertex="1">
          <mxGeometry x="-120" y="810" width="90" height="40" as="geometry" />
        </mxCell>
        <mxCell id="qwqArq7vtgRSBeXjU8T7-21" value="ID_Proof_Info" style="ellipse;whiteSpace=wrap;html=1;" parent="1" vertex="1">
          <mxGeometry x="10" y="660" width="90" height="40" as="geometry" />
        </mxCell>
        <mxCell id="qwqArq7vtgRSBeXjU8T7-23" value="NAME" style="ellipse;whiteSpace=wrap;html=1;" parent="1" vertex="1">
          <mxGeometry y="850" width="90" height="40" as="geometry" />
        </mxCell>
        <mxCell id="qwqArq7vtgRSBeXjU8T7-24" value="Contact" style="ellipse;whiteSpace=wrap;html=1;" parent="1" vertex="1">
          <mxGeometry x="120" y="820" width="90" height="40" as="geometry" />
        </mxCell>
        <mxCell id="qwqArq7vtgRSBeXjU8T7-25" value="Staff_ID&amp;nbsp;" style="ellipse;whiteSpace=wrap;html=1;" parent="1" vertex="1">
          <mxGeometry x="-750" y="140" width="90" height="40" as="geometry" />
        </mxCell>
        <mxCell id="qwqArq7vtgRSBeXjU8T7-26" value="Contact_Number" style="ellipse;whiteSpace=wrap;html=1;" parent="1" vertex="1">
          <mxGeometry x="-730" y="20" width="90" height="40" as="geometry" />
        </mxCell>
        <mxCell id="qwqArq7vtgRSBeXjU8T7-27" value="Position" style="ellipse;whiteSpace=wrap;html=1;" parent="1" vertex="1">
          <mxGeometry x="-800" y="70" width="90" height="40" as="geometry" />
        </mxCell>
        <mxCell id="qwqArq7vtgRSBeXjU8T7-28" value="NAME" style="ellipse;whiteSpace=wrap;html=1;" parent="1" vertex="1">
          <mxGeometry x="-660" y="170" width="90" height="40" as="geometry" />
        </mxCell>
        <mxCell id="qwqArq7vtgRSBeXjU8T7-30" value="Review_ID&amp;nbsp;" style="ellipse;whiteSpace=wrap;html=1;" parent="1" vertex="1">
          <mxGeometry x="-470" y="860" width="90" height="40" as="geometry" />
        </mxCell>
        <mxCell id="qwqArq7vtgRSBeXjU8T7-31" value="Rating" style="ellipse;whiteSpace=wrap;html=1;" parent="1" vertex="1">
          <mxGeometry x="-350" y="840" width="90" height="40" as="geometry" />
        </mxCell>
        <mxCell id="qwqArq7vtgRSBeXjU8T7-32" value="Comments" style="ellipse;whiteSpace=wrap;html=1;" parent="1" vertex="1">
          <mxGeometry x="-570" y="740" width="90" height="40" as="geometry" />
        </mxCell>
        <mxCell id="qwqArq7vtgRSBeXjU8T7-33" value="Date" style="ellipse;whiteSpace=wrap;html=1;" parent="1" vertex="1">
          <mxGeometry x="-570" y="810" width="90" height="40" as="geometry" />
        </mxCell>
        <mxCell id="qwqArq7vtgRSBeXjU8T7-35" value="Payment_ID&amp;nbsp;" style="ellipse;whiteSpace=wrap;html=1;" parent="1" vertex="1">
          <mxGeometry x="870" y="700" width="90" height="40" as="geometry" />
        </mxCell>
        <mxCell id="qwqArq7vtgRSBeXjU8T7-36" value="Payment_Date" style="ellipse;whiteSpace=wrap;html=1;" parent="1" vertex="1">
          <mxGeometry x="990" y="710" width="90" height="40" as="geometry" />
        </mxCell>
        <mxCell id="qwqArq7vtgRSBeXjU8T7-37" value="Method" style="ellipse;whiteSpace=wrap;html=1;" parent="1" vertex="1">
          <mxGeometry x="1050" y="770" width="90" height="40" as="geometry" />
        </mxCell>
        <mxCell id="qwqArq7vtgRSBeXjU8T7-38" value="Amount" style="ellipse;whiteSpace=wrap;html=1;" parent="1" vertex="1">
          <mxGeometry x="1040" y="850" width="90" height="40" as="geometry" />
        </mxCell>
        <mxCell id="qwqArq7vtgRSBeXjU8T7-39" value="RATING" style="ellipse;whiteSpace=wrap;html=1;" parent="1" vertex="1">
          <mxGeometry x="920" y="880" width="90" height="40" as="geometry" />
        </mxCell>
        <mxCell id="qwqArq7vtgRSBeXjU8T7-43" value="Booking_ID&amp;nbsp;" style="ellipse;whiteSpace=wrap;html=1;" parent="1" vertex="1">
          <mxGeometry x="590" y="810" width="90" height="40" as="geometry" />
        </mxCell>
        <mxCell id="qwqArq7vtgRSBeXjU8T7-44" value="Check_Out_Date" style="ellipse;whiteSpace=wrap;html=1;" parent="1" vertex="1">
          <mxGeometry x="550" y="870" width="100" height="40" as="geometry" />
        </mxCell>
        <mxCell id="qwqArq7vtgRSBeXjU8T7-45" value="Status" style="ellipse;whiteSpace=wrap;html=1;" parent="1" vertex="1">
          <mxGeometry x="310" y="820" width="90" height="40" as="geometry" />
        </mxCell>
        <mxCell id="qwqArq7vtgRSBeXjU8T7-46" value="Check_In_Date" style="ellipse;whiteSpace=wrap;html=1;" parent="1" vertex="1">
          <mxGeometry x="445" y="850" width="90" height="40" as="geometry" />
        </mxCell>
        <mxCell id="qwqArq7vtgRSBeXjU8T7-47" value="Booking_Date" style="ellipse;whiteSpace=wrap;html=1;" parent="1" vertex="1">
          <mxGeometry x="280" y="760" width="90" height="40" as="geometry" />
        </mxCell>
        <mxCell id="qwqArq7vtgRSBeXjU8T7-49" value="Total_Cost" style="ellipse;whiteSpace=wrap;html=1;" parent="1" vertex="1">
          <mxGeometry x="370" y="890" width="90" height="40" as="geometry" />
        </mxCell>
        <mxCell id="qwqArq7vtgRSBeXjU8T7-54" value="&lt;div style=&quot;text-align: left;&quot;&gt;&lt;span style=&quot;background-color: initial; font-size: 14px;&quot;&gt;have&lt;/span&gt;&lt;/div&gt;" style="rhombus;whiteSpace=wrap;html=1;" parent="1" vertex="1">
          <mxGeometry x="-40" y="220" width="80" height="80" as="geometry" />
        </mxCell>
        <mxCell id="qwqArq7vtgRSBeXjU8T7-59" value="&lt;div style=&quot;text-align: left;&quot;&gt;&lt;span style=&quot;background-color: initial; font-size: 14px;&quot;&gt;have&lt;/span&gt;&lt;/div&gt;" style="rhombus;whiteSpace=wrap;html=1;" parent="1" vertex="1">
          <mxGeometry x="-425" y="140" width="80" height="80" as="geometry" />
        </mxCell>
        <mxCell id="qwqArq7vtgRSBeXjU8T7-60" value="" style="endArrow=none;html=1;rounded=0;entryX=0.886;entryY=0.711;entryDx=0;entryDy=0;exitX=0;exitY=0;exitDx=0;exitDy=0;entryPerimeter=0;" parent="1" source="qwqArq7vtgRSBeXjU8T7-12" target="qwqArq7vtgRSBeXjU8T7-59" edge="1">
          <mxGeometry relative="1" as="geometry">
            <mxPoint x="-180" y="280" as="sourcePoint" />
            <mxPoint x="-20" y="280" as="targetPoint" />
          </mxGeometry>
        </mxCell>
        <mxCell id="qwqArq7vtgRSBeXjU8T7-61" value="1" style="resizable=0;html=1;whiteSpace=wrap;align=right;verticalAlign=bottom;" parent="qwqArq7vtgRSBeXjU8T7-60" connectable="0" vertex="1">
          <mxGeometry x="1" relative="1" as="geometry" />
        </mxCell>
        <mxCell id="qwqArq7vtgRSBeXjU8T7-62" value="" style="endArrow=none;html=1;rounded=0;entryX=0.75;entryY=1;entryDx=0;entryDy=0;exitX=0;exitY=0.5;exitDx=0;exitDy=0;" parent="1" source="qwqArq7vtgRSBeXjU8T7-59" target="qwqArq7vtgRSBeXjU8T7-9" edge="1">
          <mxGeometry relative="1" as="geometry">
            <mxPoint x="10" y="470" as="sourcePoint" />
            <mxPoint x="170" y="470" as="targetPoint" />
          </mxGeometry>
        </mxCell>
        <mxCell id="qwqArq7vtgRSBeXjU8T7-63" value="N" style="resizable=0;html=1;whiteSpace=wrap;align=right;verticalAlign=bottom;" parent="qwqArq7vtgRSBeXjU8T7-62" connectable="0" vertex="1">
          <mxGeometry x="1" relative="1" as="geometry" />
        </mxCell>
        <mxCell id="qwqArq7vtgRSBeXjU8T7-64" value="" style="endArrow=none;html=1;rounded=0;entryX=0;entryY=0.5;entryDx=0;entryDy=0;exitX=1;exitY=0.5;exitDx=0;exitDy=0;" parent="1" source="qwqArq7vtgRSBeXjU8T7-12" target="qwqArq7vtgRSBeXjU8T7-54" edge="1">
          <mxGeometry relative="1" as="geometry">
            <mxPoint x="-163" y="291" as="sourcePoint" />
            <mxPoint x="-10" y="440" as="targetPoint" />
          </mxGeometry>
        </mxCell>
        <mxCell id="qwqArq7vtgRSBeXjU8T7-65" value="1" style="resizable=0;html=1;whiteSpace=wrap;align=right;verticalAlign=bottom;" parent="qwqArq7vtgRSBeXjU8T7-64" connectable="0" vertex="1">
          <mxGeometry x="1" relative="1" as="geometry" />
        </mxCell>
        <mxCell id="qwqArq7vtgRSBeXjU8T7-66" value="" style="endArrow=none;html=1;rounded=0;entryX=0;entryY=0.5;entryDx=0;entryDy=0;exitX=1;exitY=0.5;exitDx=0;exitDy=0;" parent="1" source="qwqArq7vtgRSBeXjU8T7-54" target="qwqArq7vtgRSBeXjU8T7-11" edge="1">
          <mxGeometry relative="1" as="geometry">
            <mxPoint x="30" y="300" as="sourcePoint" />
            <mxPoint x="140" y="420" as="targetPoint" />
          </mxGeometry>
        </mxCell>
        <mxCell id="qwqArq7vtgRSBeXjU8T7-67" value="N" style="resizable=0;html=1;whiteSpace=wrap;align=right;verticalAlign=bottom;" parent="qwqArq7vtgRSBeXjU8T7-66" connectable="0" vertex="1">
          <mxGeometry x="1" relative="1" as="geometry" />
        </mxCell>
        <mxCell id="qwqArq7vtgRSBeXjU8T7-68" value="&lt;div style=&quot;text-align: left;&quot;&gt;&lt;span style=&quot;background-color: initial; font-size: 14px;&quot;&gt;have&lt;/span&gt;&lt;/div&gt;" style="rhombus;whiteSpace=wrap;html=1;" parent="1" vertex="1">
          <mxGeometry x="-420" y="410" width="80" height="80" as="geometry" />
        </mxCell>
        <mxCell id="qwqArq7vtgRSBeXjU8T7-69" value="" style="endArrow=none;html=1;rounded=0;entryX=0.5;entryY=0;entryDx=0;entryDy=0;exitX=0;exitY=1;exitDx=0;exitDy=0;" parent="1" target="qwqArq7vtgRSBeXjU8T7-68" edge="1" source="qwqArq7vtgRSBeXjU8T7-12">
          <mxGeometry relative="1" as="geometry">
            <mxPoint x="-196.99000000000024" y="280.00000000000006" as="sourcePoint" />
            <mxPoint x="-217" y="283.56" as="targetPoint" />
          </mxGeometry>
        </mxCell>
        <mxCell id="qwqArq7vtgRSBeXjU8T7-70" value="1" style="resizable=0;html=1;whiteSpace=wrap;align=right;verticalAlign=bottom;" parent="qwqArq7vtgRSBeXjU8T7-69" connectable="0" vertex="1">
          <mxGeometry x="1" relative="1" as="geometry" />
        </mxCell>
        <mxCell id="qwqArq7vtgRSBeXjU8T7-71" value="" style="endArrow=none;html=1;rounded=0;entryX=0.5;entryY=0;entryDx=0;entryDy=0;exitX=0.5;exitY=1;exitDx=0;exitDy=0;" parent="1" source="qwqArq7vtgRSBeXjU8T7-68" target="qwqArq7vtgRSBeXjU8T7-10" edge="1">
          <mxGeometry relative="1" as="geometry">
            <mxPoint x="-187" y="473.56" as="sourcePoint" />
            <mxPoint x="-245" y="584.5599999999997" as="targetPoint" />
          </mxGeometry>
        </mxCell>
        <mxCell id="qwqArq7vtgRSBeXjU8T7-72" value="N" style="resizable=0;html=1;whiteSpace=wrap;align=right;verticalAlign=bottom;" parent="qwqArq7vtgRSBeXjU8T7-71" connectable="0" vertex="1">
          <mxGeometry x="1" relative="1" as="geometry" />
        </mxCell>
        <mxCell id="qwqArq7vtgRSBeXjU8T7-73" value="&lt;div style=&quot;text-align: left;&quot;&gt;&lt;span style=&quot;background-color: initial; font-size: 14px;&quot;&gt;have&lt;/span&gt;&lt;/div&gt;" style="rhombus;whiteSpace=wrap;html=1;" parent="1" vertex="1">
          <mxGeometry x="435" y="400" width="80" height="80" as="geometry" />
        </mxCell>
        <mxCell id="qwqArq7vtgRSBeXjU8T7-74" value="" style="endArrow=none;html=1;rounded=0;entryX=0.5;entryY=0;entryDx=0;entryDy=0;exitX=1;exitY=0.75;exitDx=0;exitDy=0;" parent="1" target="qwqArq7vtgRSBeXjU8T7-73" edge="1" source="qwqArq7vtgRSBeXjU8T7-11">
          <mxGeometry relative="1" as="geometry">
            <mxPoint x="240.00000000000045" y="260" as="sourcePoint" />
            <mxPoint x="453" y="230" as="targetPoint" />
          </mxGeometry>
        </mxCell>
        <mxCell id="qwqArq7vtgRSBeXjU8T7-75" value="1" style="resizable=0;html=1;whiteSpace=wrap;align=right;verticalAlign=bottom;" parent="qwqArq7vtgRSBeXjU8T7-74" connectable="0" vertex="1">
          <mxGeometry x="1" relative="1" as="geometry" />
        </mxCell>
        <mxCell id="qwqArq7vtgRSBeXjU8T7-76" value="" style="endArrow=none;html=1;rounded=0;exitX=0.5;exitY=1;exitDx=0;exitDy=0;entryX=0.5;entryY=0;entryDx=0;entryDy=0;" parent="1" source="qwqArq7vtgRSBeXjU8T7-73" target="qwqArq7vtgRSBeXjU8T7-13" edge="1">
          <mxGeometry relative="1" as="geometry">
            <mxPoint x="483" y="420" as="sourcePoint" />
            <mxPoint x="919.9999999999995" y="402.2821576763488" as="targetPoint" />
          </mxGeometry>
        </mxCell>
        <mxCell id="qwqArq7vtgRSBeXjU8T7-77" value="N" style="resizable=0;html=1;whiteSpace=wrap;align=right;verticalAlign=bottom;" parent="qwqArq7vtgRSBeXjU8T7-76" connectable="0" vertex="1">
          <mxGeometry x="1" relative="1" as="geometry" />
        </mxCell>
        <mxCell id="qwqArq7vtgRSBeXjU8T7-78" value="&lt;div style=&quot;text-align: left;&quot;&gt;&lt;span style=&quot;background-color: initial; font-size: 14px;&quot;&gt;have&lt;/span&gt;&lt;/div&gt;" style="rhombus;whiteSpace=wrap;html=1;" parent="1" vertex="1">
          <mxGeometry x="230" y="560" width="80" height="80" as="geometry" />
        </mxCell>
        <mxCell id="qwqArq7vtgRSBeXjU8T7-79" value="" style="endArrow=none;html=1;rounded=0;entryX=0;entryY=0.5;entryDx=0;entryDy=0;exitX=1;exitY=0.25;exitDx=0;exitDy=0;" parent="1" source="qwqArq7vtgRSBeXjU8T7-14" target="qwqArq7vtgRSBeXjU8T7-78" edge="1">
          <mxGeometry relative="1" as="geometry">
            <mxPoint x="739.9999999999995" y="311" as="sourcePoint" />
            <mxPoint x="790" y="120" as="targetPoint" />
          </mxGeometry>
        </mxCell>
        <mxCell id="qwqArq7vtgRSBeXjU8T7-80" value="1" style="resizable=0;html=1;whiteSpace=wrap;align=right;verticalAlign=bottom;" parent="qwqArq7vtgRSBeXjU8T7-79" connectable="0" vertex="1">
          <mxGeometry x="1" relative="1" as="geometry" />
        </mxCell>
        <mxCell id="qwqArq7vtgRSBeXjU8T7-81" value="" style="endArrow=none;html=1;rounded=0;entryX=0;entryY=0.25;entryDx=0;entryDy=0;exitX=1;exitY=0.5;exitDx=0;exitDy=0;" parent="1" source="qwqArq7vtgRSBeXjU8T7-78" target="qwqArq7vtgRSBeXjU8T7-13" edge="1">
          <mxGeometry relative="1" as="geometry">
            <mxPoint x="820" y="310" as="sourcePoint" />
            <mxPoint x="967.4999999999995" y="441.0000000000002" as="targetPoint" />
          </mxGeometry>
        </mxCell>
        <mxCell id="qwqArq7vtgRSBeXjU8T7-82" value="N" style="resizable=0;html=1;whiteSpace=wrap;align=right;verticalAlign=bottom;" parent="qwqArq7vtgRSBeXjU8T7-81" connectable="0" vertex="1">
          <mxGeometry x="1" relative="1" as="geometry" />
        </mxCell>
        <mxCell id="qwqArq7vtgRSBeXjU8T7-83" value="&lt;div style=&quot;text-align: left;&quot;&gt;&lt;span style=&quot;background-color: initial; font-size: 14px;&quot;&gt;have&lt;/span&gt;&lt;/div&gt;" style="rhombus;whiteSpace=wrap;html=1;" parent="1" vertex="1">
          <mxGeometry x="680" y="710" width="80" height="80" as="geometry" />
        </mxCell>
        <mxCell id="qwqArq7vtgRSBeXjU8T7-84" value="" style="endArrow=none;html=1;rounded=0;entryX=0;entryY=0.5;entryDx=0;entryDy=0;exitX=1;exitY=0.5;exitDx=0;exitDy=0;" parent="1" source="qwqArq7vtgRSBeXjU8T7-13" target="qwqArq7vtgRSBeXjU8T7-83" edge="1">
          <mxGeometry relative="1" as="geometry">
            <mxPoint x="490" y="630" as="sourcePoint" />
            <mxPoint x="783" y="329" as="targetPoint" />
          </mxGeometry>
        </mxCell>
        <mxCell id="qwqArq7vtgRSBeXjU8T7-85" value="1" style="resizable=0;html=1;whiteSpace=wrap;align=right;verticalAlign=bottom;" parent="qwqArq7vtgRSBeXjU8T7-84" connectable="0" vertex="1">
          <mxGeometry x="1" relative="1" as="geometry" />
        </mxCell>
        <mxCell id="qwqArq7vtgRSBeXjU8T7-86" value="" style="endArrow=none;html=1;rounded=0;exitX=1;exitY=0.5;exitDx=0;exitDy=0;entryX=0;entryY=0.5;entryDx=0;entryDy=0;" parent="1" source="qwqArq7vtgRSBeXjU8T7-83" target="qwqArq7vtgRSBeXjU8T7-1" edge="1">
          <mxGeometry relative="1" as="geometry">
            <mxPoint x="903" y="749" as="sourcePoint" />
            <mxPoint x="805.3296703296705" y="819.9999999999998" as="targetPoint" />
          </mxGeometry>
        </mxCell>
        <mxCell id="qwqArq7vtgRSBeXjU8T7-87" value="N" style="resizable=0;html=1;whiteSpace=wrap;align=right;verticalAlign=bottom;" parent="qwqArq7vtgRSBeXjU8T7-86" connectable="0" vertex="1">
          <mxGeometry x="1" relative="1" as="geometry" />
        </mxCell>
        <mxCell id="qwqArq7vtgRSBeXjU8T7-97" value="&lt;div style=&quot;text-align: left;&quot;&gt;&lt;span style=&quot;background-color: initial; font-size: 14px;&quot;&gt;have&lt;/span&gt;&lt;/div&gt;" style="rhombus;whiteSpace=wrap;html=1;" parent="1" vertex="1">
          <mxGeometry x="-200" y="610" width="80" height="80" as="geometry" />
        </mxCell>
        <mxCell id="qwqArq7vtgRSBeXjU8T7-98" value="" style="endArrow=none;html=1;rounded=0;entryX=1;entryY=0.5;entryDx=0;entryDy=0;exitX=0;exitY=0.5;exitDx=0;exitDy=0;exitPerimeter=0;" parent="1" source="qwqArq7vtgRSBeXjU8T7-14" target="qwqArq7vtgRSBeXjU8T7-97" edge="1">
          <mxGeometry relative="1" as="geometry">
            <mxPoint x="-194.99999999999955" y="430" as="sourcePoint" />
            <mxPoint x="18" y="400" as="targetPoint" />
          </mxGeometry>
        </mxCell>
        <mxCell id="qwqArq7vtgRSBeXjU8T7-99" value="1" style="resizable=0;html=1;whiteSpace=wrap;align=right;verticalAlign=bottom;" parent="qwqArq7vtgRSBeXjU8T7-98" connectable="0" vertex="1">
          <mxGeometry x="1" relative="1" as="geometry" />
        </mxCell>
        <mxCell id="qwqArq7vtgRSBeXjU8T7-100" value="" style="endArrow=none;html=1;rounded=0;exitX=0;exitY=0.5;exitDx=0;exitDy=0;entryX=1;entryY=0.5;entryDx=0;entryDy=0;" parent="1" source="qwqArq7vtgRSBeXjU8T7-97" target="qwqArq7vtgRSBeXjU8T7-10" edge="1">
          <mxGeometry relative="1" as="geometry">
            <mxPoint x="48" y="590" as="sourcePoint" />
            <mxPoint y="750" as="targetPoint" />
          </mxGeometry>
        </mxCell>
        <mxCell id="qwqArq7vtgRSBeXjU8T7-101" value="N" style="resizable=0;html=1;whiteSpace=wrap;align=right;verticalAlign=bottom;" parent="qwqArq7vtgRSBeXjU8T7-100" connectable="0" vertex="1">
          <mxGeometry x="1" relative="1" as="geometry" />
        </mxCell>
        <mxCell id="qwqArq7vtgRSBeXjU8T7-109" value="" style="endArrow=none;html=1;rounded=0;entryX=0;entryY=0.5;entryDx=0;entryDy=0;" parent="1" source="qwqArq7vtgRSBeXjU8T7-32" target="qwqArq7vtgRSBeXjU8T7-10" edge="1">
          <mxGeometry relative="1" as="geometry">
            <mxPoint x="-500" y="760" as="sourcePoint" />
            <mxPoint x="-340" y="760" as="targetPoint" />
          </mxGeometry>
        </mxCell>
        <mxCell id="qwqArq7vtgRSBeXjU8T7-110" value="" style="endArrow=none;html=1;rounded=0;exitX=1;exitY=0;exitDx=0;exitDy=0;entryX=0;entryY=0.75;entryDx=0;entryDy=0;" parent="1" source="qwqArq7vtgRSBeXjU8T7-33" target="qwqArq7vtgRSBeXjU8T7-10" edge="1">
          <mxGeometry relative="1" as="geometry">
            <mxPoint x="-470" y="770" as="sourcePoint" />
            <mxPoint x="-430" y="770" as="targetPoint" />
          </mxGeometry>
        </mxCell>
        <mxCell id="qwqArq7vtgRSBeXjU8T7-111" value="" style="endArrow=none;html=1;rounded=0;exitX=0.5;exitY=0;exitDx=0;exitDy=0;" parent="1" source="qwqArq7vtgRSBeXjU8T7-30" target="qwqArq7vtgRSBeXjU8T7-10" edge="1">
          <mxGeometry relative="1" as="geometry">
            <mxPoint x="-460" y="780" as="sourcePoint" />
            <mxPoint x="-415" y="780" as="targetPoint" />
          </mxGeometry>
        </mxCell>
        <mxCell id="qwqArq7vtgRSBeXjU8T7-112" value="" style="endArrow=none;html=1;rounded=0;" parent="1" source="qwqArq7vtgRSBeXjU8T7-31" target="qwqArq7vtgRSBeXjU8T7-10" edge="1">
          <mxGeometry relative="1" as="geometry">
            <mxPoint x="-450" y="790" as="sourcePoint" />
            <mxPoint x="-405" y="790" as="targetPoint" />
          </mxGeometry>
        </mxCell>
        <mxCell id="qwqArq7vtgRSBeXjU8T7-113" value="" style="endArrow=none;html=1;rounded=0;entryX=0.5;entryY=0;entryDx=0;entryDy=0;exitX=0.5;exitY=1;exitDx=0;exitDy=0;" parent="1" source="qwqArq7vtgRSBeXjU8T7-21" target="qwqArq7vtgRSBeXjU8T7-14" edge="1">
          <mxGeometry relative="1" as="geometry">
            <mxPoint x="60" y="690" as="sourcePoint" />
            <mxPoint x="210" y="698.5699999999999" as="targetPoint" />
          </mxGeometry>
        </mxCell>
        <mxCell id="qwqArq7vtgRSBeXjU8T7-114" value="" style="endArrow=none;html=1;rounded=0;entryX=0.5;entryY=0;entryDx=0;entryDy=0;exitX=0.5;exitY=1;exitDx=0;exitDy=0;" parent="1" source="qwqArq7vtgRSBeXjU8T7-14" target="qwqArq7vtgRSBeXjU8T7-23" edge="1">
          <mxGeometry relative="1" as="geometry">
            <mxPoint x="45" y="778.5699999999999" as="sourcePoint" />
            <mxPoint x="205" y="778.5699999999999" as="targetPoint" />
          </mxGeometry>
        </mxCell>
        <mxCell id="qwqArq7vtgRSBeXjU8T7-115" value="" style="endArrow=none;html=1;rounded=0;entryX=0.271;entryY=0.136;entryDx=0;entryDy=0;entryPerimeter=0;exitX=1;exitY=0.75;exitDx=0;exitDy=0;" parent="1" source="qwqArq7vtgRSBeXjU8T7-14" target="qwqArq7vtgRSBeXjU8T7-24" edge="1">
          <mxGeometry relative="1" as="geometry">
            <mxPoint x="105" y="760" as="sourcePoint" />
            <mxPoint x="265" y="760" as="targetPoint" />
          </mxGeometry>
        </mxCell>
        <mxCell id="qwqArq7vtgRSBeXjU8T7-117" value="" style="endArrow=none;html=1;rounded=0;entryX=0;entryY=1;entryDx=0;entryDy=0;exitX=1;exitY=0;exitDx=0;exitDy=0;" parent="1" source="qwqArq7vtgRSBeXjU8T7-20" target="qwqArq7vtgRSBeXjU8T7-14" edge="1">
          <mxGeometry relative="1" as="geometry">
            <mxPoint x="-170" y="778.5699999999999" as="sourcePoint" />
            <mxPoint x="-10" y="778.5699999999999" as="targetPoint" />
          </mxGeometry>
        </mxCell>
        <mxCell id="8TXAGc3ROuFA9lvTQrWI-1" value="" style="endArrow=none;html=1;rounded=0;exitX=1;exitY=0;exitDx=0;exitDy=0;" edge="1" parent="1" source="qwqArq7vtgRSBeXjU8T7-45" target="qwqArq7vtgRSBeXjU8T7-13">
          <mxGeometry relative="1" as="geometry">
            <mxPoint x="300" y="790" as="sourcePoint" />
            <mxPoint x="460" y="790" as="targetPoint" />
          </mxGeometry>
        </mxCell>
        <mxCell id="8TXAGc3ROuFA9lvTQrWI-2" value="" style="endArrow=none;html=1;rounded=0;" edge="1" parent="1" source="qwqArq7vtgRSBeXjU8T7-47" target="qwqArq7vtgRSBeXjU8T7-13">
          <mxGeometry relative="1" as="geometry">
            <mxPoint x="275" y="759.29" as="sourcePoint" />
            <mxPoint x="435" y="759.29" as="targetPoint" />
          </mxGeometry>
        </mxCell>
        <mxCell id="8TXAGc3ROuFA9lvTQrWI-4" value="" style="endArrow=none;html=1;rounded=0;entryX=0.5;entryY=1;entryDx=0;entryDy=0;" edge="1" parent="1" source="qwqArq7vtgRSBeXjU8T7-46" target="qwqArq7vtgRSBeXjU8T7-13">
          <mxGeometry relative="1" as="geometry">
            <mxPoint x="355" y="930" as="sourcePoint" />
            <mxPoint x="515" y="930" as="targetPoint" />
          </mxGeometry>
        </mxCell>
        <mxCell id="8TXAGc3ROuFA9lvTQrWI-5" value="" style="endArrow=none;html=1;rounded=0;entryX=0.656;entryY=0.957;entryDx=0;entryDy=0;entryPerimeter=0;exitX=0.243;exitY=0.064;exitDx=0;exitDy=0;exitPerimeter=0;" edge="1" parent="1" source="qwqArq7vtgRSBeXjU8T7-44" target="qwqArq7vtgRSBeXjU8T7-13">
          <mxGeometry relative="1" as="geometry">
            <mxPoint x="-90" y="550" as="sourcePoint" />
            <mxPoint x="70" y="550" as="targetPoint" />
          </mxGeometry>
        </mxCell>
        <mxCell id="8TXAGc3ROuFA9lvTQrWI-6" value="" style="endArrow=none;html=1;rounded=0;entryX=0.383;entryY=1.029;entryDx=0;entryDy=0;entryPerimeter=0;exitX=0.5;exitY=0;exitDx=0;exitDy=0;" edge="1" parent="1" source="qwqArq7vtgRSBeXjU8T7-49" target="qwqArq7vtgRSBeXjU8T7-13">
          <mxGeometry relative="1" as="geometry">
            <mxPoint x="-90" y="550" as="sourcePoint" />
            <mxPoint x="70" y="550" as="targetPoint" />
          </mxGeometry>
        </mxCell>
        <mxCell id="8TXAGc3ROuFA9lvTQrWI-7" value="" style="endArrow=none;html=1;rounded=0;" edge="1" parent="1" source="qwqArq7vtgRSBeXjU8T7-43" target="qwqArq7vtgRSBeXjU8T7-13">
          <mxGeometry relative="1" as="geometry">
            <mxPoint x="370" y="759.29" as="sourcePoint" />
            <mxPoint x="530" y="759.29" as="targetPoint" />
          </mxGeometry>
        </mxCell>
        <mxCell id="8TXAGc3ROuFA9lvTQrWI-8" value="" style="endArrow=none;html=1;rounded=0;entryX=1;entryY=1;entryDx=0;entryDy=0;" edge="1" parent="1" target="qwqArq7vtgRSBeXjU8T7-15">
          <mxGeometry relative="1" as="geometry">
            <mxPoint x="160" y="240" as="sourcePoint" />
            <mxPoint x="320" y="240" as="targetPoint" />
          </mxGeometry>
        </mxCell>
        <mxCell id="8TXAGc3ROuFA9lvTQrWI-9" value="" style="endArrow=none;html=1;rounded=0;entryX=0.5;entryY=1;entryDx=0;entryDy=0;exitX=0.5;exitY=0;exitDx=0;exitDy=0;" edge="1" parent="1" source="qwqArq7vtgRSBeXjU8T7-11" target="qwqArq7vtgRSBeXjU8T7-18">
          <mxGeometry relative="1" as="geometry">
            <mxPoint x="85" y="230" as="sourcePoint" />
            <mxPoint x="245" y="230" as="targetPoint" />
          </mxGeometry>
        </mxCell>
        <mxCell id="8TXAGc3ROuFA9lvTQrWI-10" value="" style="endArrow=none;html=1;rounded=0;exitX=0.636;exitY=0;exitDx=0;exitDy=0;exitPerimeter=0;" edge="1" parent="1" source="qwqArq7vtgRSBeXjU8T7-11" target="qwqArq7vtgRSBeXjU8T7-16">
          <mxGeometry relative="1" as="geometry">
            <mxPoint x="100" y="320" as="sourcePoint" />
            <mxPoint x="260" y="320" as="targetPoint" />
          </mxGeometry>
        </mxCell>
        <mxCell id="8TXAGc3ROuFA9lvTQrWI-11" value="" style="endArrow=none;html=1;rounded=0;exitX=1;exitY=0;exitDx=0;exitDy=0;" edge="1" parent="1" source="qwqArq7vtgRSBeXjU8T7-11" target="qwqArq7vtgRSBeXjU8T7-19">
          <mxGeometry relative="1" as="geometry">
            <mxPoint x="205" y="138.57" as="sourcePoint" />
            <mxPoint x="365" y="138.57" as="targetPoint" />
          </mxGeometry>
        </mxCell>
        <mxCell id="8TXAGc3ROuFA9lvTQrWI-12" value="" style="endArrow=none;html=1;rounded=0;" edge="1" parent="1" source="qwqArq7vtgRSBeXjU8T7-11" target="qwqArq7vtgRSBeXjU8T7-17">
          <mxGeometry relative="1" as="geometry">
            <mxPoint x="175" y="238.57" as="sourcePoint" />
            <mxPoint x="335" y="238.57" as="targetPoint" />
          </mxGeometry>
        </mxCell>
        <mxCell id="8TXAGc3ROuFA9lvTQrWI-13" value="" style="endArrow=none;html=1;rounded=0;entryX=0;entryY=0.5;entryDx=0;entryDy=0;" edge="1" parent="1" source="qwqArq7vtgRSBeXjU8T7-5" target="qwqArq7vtgRSBeXjU8T7-12">
          <mxGeometry relative="1" as="geometry">
            <mxPoint x="-450" y="259.29" as="sourcePoint" />
            <mxPoint x="-290" y="259.29" as="targetPoint" />
          </mxGeometry>
        </mxCell>
        <mxCell id="8TXAGc3ROuFA9lvTQrWI-14" value="" style="endArrow=none;html=1;rounded=0;entryX=0.5;entryY=1;entryDx=0;entryDy=0;" edge="1" parent="1" source="qwqArq7vtgRSBeXjU8T7-4" target="qwqArq7vtgRSBeXjU8T7-12">
          <mxGeometry relative="1" as="geometry">
            <mxPoint x="-370" y="340" as="sourcePoint" />
            <mxPoint x="-210" y="340" as="targetPoint" />
          </mxGeometry>
        </mxCell>
        <mxCell id="8TXAGc3ROuFA9lvTQrWI-15" value="" style="endArrow=none;html=1;rounded=0;exitX=0.5;exitY=1;exitDx=0;exitDy=0;entryX=0.25;entryY=0;entryDx=0;entryDy=0;" edge="1" parent="1" source="qwqArq7vtgRSBeXjU8T7-6" target="qwqArq7vtgRSBeXjU8T7-12">
          <mxGeometry relative="1" as="geometry">
            <mxPoint x="-370" y="178.57" as="sourcePoint" />
            <mxPoint x="-199" y="244" as="targetPoint" />
          </mxGeometry>
        </mxCell>
        <mxCell id="8TXAGc3ROuFA9lvTQrWI-16" value="" style="endArrow=none;html=1;rounded=0;entryX=0.381;entryY=0.957;entryDx=0;entryDy=0;entryPerimeter=0;exitX=0.597;exitY=0.029;exitDx=0;exitDy=0;exitPerimeter=0;" edge="1" parent="1" source="qwqArq7vtgRSBeXjU8T7-12" target="qwqArq7vtgRSBeXjU8T7-8">
          <mxGeometry relative="1" as="geometry">
            <mxPoint x="-300" y="189.29000000000002" as="sourcePoint" />
            <mxPoint x="-140" y="189.29000000000002" as="targetPoint" />
          </mxGeometry>
        </mxCell>
        <mxCell id="8TXAGc3ROuFA9lvTQrWI-17" value="" style="endArrow=none;html=1;rounded=0;entryX=0;entryY=1;entryDx=0;entryDy=0;" edge="1" parent="1" source="qwqArq7vtgRSBeXjU8T7-12" target="qwqArq7vtgRSBeXjU8T7-2">
          <mxGeometry relative="1" as="geometry">
            <mxPoint x="-190" y="370" as="sourcePoint" />
            <mxPoint x="-30" y="370" as="targetPoint" />
          </mxGeometry>
        </mxCell>
        <mxCell id="8TXAGc3ROuFA9lvTQrWI-18" value="" style="endArrow=none;html=1;rounded=0;entryX=0.455;entryY=1;entryDx=0;entryDy=0;entryPerimeter=0;exitX=0.714;exitY=0.1;exitDx=0;exitDy=0;exitPerimeter=0;" edge="1" parent="1" source="qwqArq7vtgRSBeXjU8T7-28" target="qwqArq7vtgRSBeXjU8T7-9">
          <mxGeometry relative="1" as="geometry">
            <mxPoint x="-740" y="129.29000000000002" as="sourcePoint" />
            <mxPoint x="-580" y="129.29000000000002" as="targetPoint" />
          </mxGeometry>
        </mxCell>
        <mxCell id="8TXAGc3ROuFA9lvTQrWI-19" value="" style="endArrow=none;html=1;rounded=0;entryX=0;entryY=0.75;entryDx=0;entryDy=0;exitX=0.698;exitY=0.064;exitDx=0;exitDy=0;exitPerimeter=0;" edge="1" parent="1" source="qwqArq7vtgRSBeXjU8T7-25" target="qwqArq7vtgRSBeXjU8T7-9">
          <mxGeometry relative="1" as="geometry">
            <mxPoint x="-785" y="128.57" as="sourcePoint" />
            <mxPoint x="-625" y="128.57" as="targetPoint" />
          </mxGeometry>
        </mxCell>
        <mxCell id="8TXAGc3ROuFA9lvTQrWI-20" value="" style="endArrow=none;html=1;rounded=0;entryX=0.5;entryY=1;entryDx=0;entryDy=0;exitX=0.385;exitY=-0.007;exitDx=0;exitDy=0;exitPerimeter=0;" edge="1" parent="1" source="qwqArq7vtgRSBeXjU8T7-1" target="qwqArq7vtgRSBeXjU8T7-35">
          <mxGeometry relative="1" as="geometry">
            <mxPoint x="920" y="780" as="sourcePoint" />
            <mxPoint x="960" y="760" as="targetPoint" />
          </mxGeometry>
        </mxCell>
        <mxCell id="8TXAGc3ROuFA9lvTQrWI-21" value="" style="endArrow=none;html=1;rounded=0;entryX=0.5;entryY=0;entryDx=0;entryDy=0;exitX=0.5;exitY=1;exitDx=0;exitDy=0;" edge="1" parent="1" source="qwqArq7vtgRSBeXjU8T7-1" target="qwqArq7vtgRSBeXjU8T7-39">
          <mxGeometry relative="1" as="geometry">
            <mxPoint x="720" y="840" as="sourcePoint" />
            <mxPoint x="880" y="840" as="targetPoint" />
          </mxGeometry>
        </mxCell>
        <mxCell id="8TXAGc3ROuFA9lvTQrWI-22" value="" style="endArrow=none;html=1;rounded=0;entryX=0.365;entryY=1.064;entryDx=0;entryDy=0;entryPerimeter=0;exitX=0.75;exitY=0;exitDx=0;exitDy=0;" edge="1" parent="1" source="qwqArq7vtgRSBeXjU8T7-1" target="qwqArq7vtgRSBeXjU8T7-36">
          <mxGeometry relative="1" as="geometry">
            <mxPoint x="800" y="778.5699999999999" as="sourcePoint" />
            <mxPoint x="960" y="778.5699999999999" as="targetPoint" />
          </mxGeometry>
        </mxCell>
        <mxCell id="8TXAGc3ROuFA9lvTQrWI-23" value="" style="endArrow=none;html=1;rounded=0;" edge="1" parent="1" source="qwqArq7vtgRSBeXjU8T7-1" target="qwqArq7vtgRSBeXjU8T7-37">
          <mxGeometry relative="1" as="geometry">
            <mxPoint x="820" y="818.5699999999999" as="sourcePoint" />
            <mxPoint x="980" y="818.5699999999999" as="targetPoint" />
          </mxGeometry>
        </mxCell>
        <mxCell id="8TXAGc3ROuFA9lvTQrWI-24" value="" style="endArrow=none;html=1;rounded=0;entryX=0;entryY=0;entryDx=0;entryDy=0;exitX=0.75;exitY=1;exitDx=0;exitDy=0;" edge="1" parent="1" source="qwqArq7vtgRSBeXjU8T7-1" target="qwqArq7vtgRSBeXjU8T7-38">
          <mxGeometry relative="1" as="geometry">
            <mxPoint x="850" y="848.5699999999999" as="sourcePoint" />
            <mxPoint x="1010" y="848.5699999999999" as="targetPoint" />
          </mxGeometry>
        </mxCell>
        <mxCell id="8TXAGc3ROuFA9lvTQrWI-26" value="" style="endArrow=none;html=1;rounded=0;entryX=0.25;entryY=0;entryDx=0;entryDy=0;" edge="1" parent="1" source="qwqArq7vtgRSBeXjU8T7-26" target="qwqArq7vtgRSBeXjU8T7-9">
          <mxGeometry relative="1" as="geometry">
            <mxPoint x="-790" y="39.29000000000002" as="sourcePoint" />
            <mxPoint x="-630" y="39.29000000000002" as="targetPoint" />
          </mxGeometry>
        </mxCell>
        <mxCell id="8TXAGc3ROuFA9lvTQrWI-28" value="" style="endArrow=none;html=1;rounded=0;entryX=0;entryY=0.5;entryDx=0;entryDy=0;exitX=1;exitY=1;exitDx=0;exitDy=0;" edge="1" parent="1" source="qwqArq7vtgRSBeXjU8T7-27" target="qwqArq7vtgRSBeXjU8T7-9">
          <mxGeometry relative="1" as="geometry">
            <mxPoint x="-840" y="108.57" as="sourcePoint" />
            <mxPoint x="-680" y="108.57" as="targetPoint" />
          </mxGeometry>
        </mxCell>
      </root>
    </mxGraphModel>
  </diagram>
</mxfile>
